<?xml version="1.0" encoding="UTF-8"?>
<svg version="1.1" xmlns="http://www.w3.org/2000/svg" width="1024" height="1024">
<path d="M0 0 C337.92 0 675.84 0 1024 0 C1024 337.92 1024 675.84 1024 1024 C686.08 1024 348.16 1024 0 1024 C0 686.08 0 348.16 0 0 Z " fill="#000000" transform="translate(0,0)"/>
<path d="M0 0 C0.90878906 0.32871094 1.81757812 0.65742188 2.75390625 0.99609375 C5.1187321 2.05306809 6.2671983 3.11053404 8 5 C9.25480355 5.97922836 10.52679431 6.93671379 11.8125 7.875 C15.3180898 10.47989297 18.75204192 13.07683773 22 16 C22 16.66 22 17.32 22 18 C22.66 18 23.32 18 24 18 C30.20474421 25.09113624 34.04381171 33.52307166 38 42 C38.53238281 43.13308594 39.06476563 44.26617187 39.61328125 45.43359375 C42.94879548 54.01197261 43.33807462 62.0942868 43.3125 71.25 C43.32861328 72.38824219 43.34472656 73.52648437 43.36132812 74.69921875 C43.37363474 96.3834724 33.81916764 115.05519735 19.375 130.875 C17.25850296 132.76870788 15.49596654 133.75201673 13 135 C12.67 135.99 12.34 136.98 12 138 C10.57421875 139.40234375 10.57421875 139.40234375 8.6875 140.9375 C4.18988462 144.72496558 0.10997691 148.85390379 -3.9621582 153.08764648 C-5.27211898 154.42790771 -6.63237164 155.71863743 -8 157 C-8.66 157 -9.32 157 -10 157 C-10.226875 157.5775 -10.45375 158.155 -10.6875 158.75 C-12.3408693 161.58434736 -14.42963944 162.96762189 -17 165 C-18.19726839 166.45613723 -19.39345743 167.91325817 -20.57421875 169.3828125 C-22.72647632 171.82400328 -25.20776364 173.83280951 -27.68359375 175.9375 C-31.42379589 179.26773057 -34.88796728 182.86945422 -38.38671875 186.44921875 C-41 189 -41 189 -43.64453125 191.11328125 C-45.7561266 192.80465862 -47.31093416 194.40702711 -49 196.5 C-52.06475989 200.10071222 -55.41500683 203.28543926 -58.91796875 206.44921875 C-65.93524996 212.85774734 -72.6353793 219.55303043 -79.3125 226.3125 C-92.04225799 239.19675873 -92.04225799 239.19675873 -98.30786133 244.53491211 C-100.89845944 246.77790435 -103.28019999 249.18607123 -105.6875 251.625 C-107.02361328 252.97464844 -107.02361328 252.97464844 -108.38671875 254.3515625 C-109.24910156 255.22554688 -110.11148438 256.09953125 -111 257 C-113.55932837 259.57060295 -116.12602018 262.12029199 -118.75 264.625 C-121.19004674 266.86533112 -121.19004674 266.86533112 -122 270 C-120.90171875 270.38478516 -120.90171875 270.38478516 -119.78125 270.77734375 C-116.8684016 272.05785154 -114.92065884 273.51074293 -112.5 275.5625 C-108.13869002 279.14731562 -103.62978774 282.39024797 -98.96557617 285.56811523 C-94.14926892 288.86303726 -89.49457951 292.35016079 -84.84375 295.875 C-82.20186059 297.84915912 -79.52506275 299.74964798 -76.8125 301.625 C-72.99436557 304.27296369 -69.32051065 307.05155889 -65.66796875 309.921875 C-56.49987192 317.0630573 -47.25980904 324.03565234 -37.453125 330.28125 C-35.00596192 331.99582286 -33.09261094 333.87767653 -31 336 C-29.67343625 336.95617664 -28.31762897 337.87290869 -26.9375 338.75 C-19.66539818 343.4947484 -12.68358517 348.59584478 -5.9375 354.0625 C1.15833964 359.79980072 8.67170293 364.86880894 16.3828125 369.73828125 C16.91648437 370.15464844 17.45015625 370.57101562 18 371 C18 371.66 18 372.32 18 373 C18.78375 373.309375 19.5675 373.61875 20.375 373.9375 C23 375 23 375 25 376 C25 376.66 25 377.32 25 378 C25.680625 378.20625 26.36125 378.4125 27.0625 378.625 C30.36442241 380.1705807 32.59501615 382.10625049 35.25390625 384.5625 C37.07337478 386.06040698 38.86117887 387.02653218 41 388 C41 388.66 41 389.32 41 390 C41.5259375 390.23460937 42.051875 390.46921875 42.59375 390.7109375 C45.76367244 392.40911024 48.60271239 394.50833287 51.5 396.625 C57.17792233 400.7440117 62.94975964 404.6364004 68.8671875 408.40625 C69.57101562 408.9321875 70.27484375 409.458125 71 410 C71 410.66 71 411.32 71 412 C71.5775 412.27714844 72.155 412.55429687 72.75 412.83984375 C80.03554253 416.59645162 86.50637316 421.83802954 93.015625 426.76953125 C95.70467678 428.77928068 98.4259424 430.71678085 101.1875 432.625 C117.13323353 443.6998503 117.13323353 443.6998503 122 451 C122 451.99 122 452.98 122 454 C122.66 454 123.32 454 124 454 C124 457.63 124 461.26 124 465 C123.34 465 122.68 465 122 465 C121.95875 465.66 121.9175 466.32 121.875 467 C118.59611269 478.24189934 106.62561118 485.6312227 97 491 C94.07337589 492.48948625 91.11217163 493.88643511 88.125 495.25 C87.41883545 495.57919434 86.7126709 495.90838867 85.98510742 496.24755859 C73.85178178 501.60335385 61.91762778 502.51020129 48.875 502.375 C48.10541962 502.3713443 47.33583923 502.3676886 46.54293823 502.36392212 C34.79292467 502.29845691 23.49259589 501.60435125 12 499 C10.86304688 498.76023437 9.72609375 498.52046875 8.5546875 498.2734375 C3.01503691 497.01000842 -2.11294173 495.2566222 -7.33984375 493.046875 C-11.58180461 491.37749833 -15.94384023 490.12511333 -20.3125 488.83203125 C-23 488 -23 488 -25 487 C-25 486.34 -25 485.68 -25 485 C-25.67160156 484.9071875 -26.34320312 484.814375 -27.03515625 484.71875 C-30.77131516 483.81301451 -34.02970647 482.23024356 -37.4375 480.5 C-38.14052246 480.14397705 -38.84354492 479.7879541 -39.56787109 479.42114258 C-58.10735204 469.85110005 -78.60057744 455.99180128 -91 439 C-91 438.34 -91 437.68 -91 437 C-91.5878125 436.77054688 -92.175625 436.54109375 -92.78125 436.3046875 C-95.57884236 434.65962439 -96.73210102 432.83309979 -98.5 430.125 C-100.21064321 427.52015693 -101.77390145 425.22125043 -104.00390625 423.0390625 C-106.34978041 420.64269008 -107.79843199 418.17231063 -109.4375 415.25 C-111.42672039 411.75405097 -113.41191172 408.27431696 -115.5625 404.875 C-118.45501214 400.29752933 -121.22257666 395.64793293 -124 391 C-125.43657216 388.60360974 -126.87459215 386.20808897 -128.3125 383.8125 C-129.08986783 382.51694153 -129.8672113 381.22136844 -130.64453125 379.92578125 C-131.03463379 379.27561035 -131.42473633 378.62543945 -131.82666016 377.95556641 C-151 346 -151 346 -152.53125 343.4375 C-154.20864847 340.65373233 -155.91575845 337.88932892 -157.625 335.125 C-161.76217641 328.41716024 -165.81871241 321.66239222 -169.86328125 314.8984375 C-170.97912929 313.03485624 -172.09830026 311.1733176 -173.21875 309.3125 C-176.3281195 304.14575179 -179.43525567 298.97904713 -182.47265625 293.76953125 C-187.17306999 285.70934036 -191.98870839 277.76684233 -197.08984375 269.953125 C-200.17227572 265.18764735 -202.65244921 260.69179935 -204.6875 255.375 C-205.12449219 254.24835938 -205.56148438 253.12171875 -206.01171875 251.9609375 C-207 249 -207 249 -207 246 C-207.66 246 -208.32 246 -209 246 C-220.2203734 214.36809627 -221.86915691 175.10476408 -207.9375 143.9375 C-207.61136719 143.28007812 -207.28523438 142.62265625 -206.94921875 141.9453125 C-205.89192126 139.7785053 -205.08285722 137.57467114 -204.25 135.3125 C-195.28036912 112.80116959 -177.95985962 95.68680285 -161 79 C-158.54781028 76.55508681 -156.10319486 74.10598391 -153.6875 71.625 C-151.50872854 69.49689764 -149.2992532 67.49297369 -147 65.5 C-142.90984618 61.95005518 -139.02012763 58.53019144 -136 54 C-135.34 54 -134.68 54 -134 54 C-133.76667969 53.42894531 -133.53335938 52.85789062 -133.29296875 52.26953125 C-131.68020564 49.43866912 -129.77796297 47.82903353 -127.3125 45.6875 C-120.63802417 39.76205706 -114.35679612 33.44719998 -108.0625 27.125 C-107.30098129 26.36055069 -107.30098129 26.36055069 -106.52407837 25.58065796 C-104.17697338 23.22380118 -101.83183516 20.86502642 -99.48852539 18.50439453 C-98.25670532 17.26471924 -98.25670532 17.26471924 -97 16 C-96.13149414 15.11924805 -95.26298828 14.23849609 -94.36816406 13.33105469 C-67.93890279 -12.68405734 -32.4967196 -13.61297822 0 0 Z " fill="#FDFDFD" transform="translate(715,249)"/>
<path d="M0 0 C1.13176163 -0.0033284 2.26352325 -0.0066568 3.42958069 -0.01008606 C5.82927039 -0.01514086 8.22896709 -0.01749483 10.62866211 -0.01733398 C14.21415666 -0.01948858 17.79932676 -0.03757046 21.38476562 -0.05664062 C43.44913245 -0.1115615 64.84548764 1.48581873 86.52197266 5.63134766 C89.39177311 6.17634691 92.26528252 6.69604495 95.140625 7.2109375 C97.00144042 7.55002297 98.86212306 7.88983811 100.72265625 8.23046875 C101.56014404 8.3804834 102.39763184 8.53049805 103.26049805 8.68505859 C107.92092347 9.56126553 112.3278308 10.72268392 116.80322266 12.28686523 C119.88482927 13.35398462 122.9894708 14.33724411 126.09765625 15.32421875 C128.51439258 16.10525323 130.93105792 16.88650739 133.34765625 17.66796875 C134.58644531 18.05855469 135.82523437 18.44914063 137.1015625 18.8515625 C138.27589844 19.23441406 139.45023437 19.61726562 140.66015625 20.01171875 C141.72878906 20.35396484 142.79742187 20.69621094 143.8984375 21.04882812 C144.70667969 21.41814453 145.51492188 21.78746094 146.34765625 22.16796875 C146.67765625 23.15796875 147.00765625 24.14796875 147.34765625 25.16796875 C148.04890625 25.43609375 148.75015625 25.70421875 149.47265625 25.98046875 C153.78137463 27.76015678 158.22232024 30.91729673 160.34765625 35.16796875 C160.55078125 37.375 160.55078125 37.375 160.59765625 39.98046875 C160.6234375 40.83253906 160.64921875 41.68460938 160.67578125 42.5625 C159.94138467 48.39395854 155.62264976 52.18161041 151.62294006 56.15338135 C151.04333462 56.73681234 150.46372917 57.32024333 149.86655992 57.92135406 C147.92757217 59.87064201 145.98153021 61.81272727 144.03540039 63.75488281 C142.64204299 65.1525882 141.24910391 66.55071072 139.85655212 67.94921875 C136.07623941 71.7429201 132.28954754 75.53019237 128.50126958 79.315938 C125.34067293 82.47546532 122.18305689 85.63796313 119.02539247 88.80042052 C111.57893007 96.25797664 104.12715289 103.71019278 96.67211914 111.15917969 C88.97497977 118.85027198 81.28707822 126.55051083 73.6036101 134.2552588 C67.00936586 140.86709541 60.40935444 147.47313574 53.80467886 154.0745523 C49.85864675 158.01876837 45.9148911 161.96519572 41.97670174 165.91724396 C38.2758507 169.63063098 34.5678723 173.33674773 30.85421181 177.037323 C29.49065398 178.39850664 28.12966479 179.76226884 26.7714119 181.12874603 C24.92089314 182.98966204 23.06143157 184.84114938 21.19935608 186.69049072 C20.66053915 187.23668194 20.12172221 187.78287316 19.56657749 188.34561563 C15.03469229 192.81228102 15.03469229 192.81228102 11.34765625 193.16796875 C11.34765625 193.82796875 11.34765625 194.48796875 11.34765625 195.16796875 C9.62391232 195.8077728 7.89315825 196.42868344 6.16015625 197.04296875 C5.19722656 197.39101563 4.23429688 197.7390625 3.2421875 198.09765625 C-8.03388067 201.49045552 -19.62526603 201.4972934 -31.27734375 201.41796875 C-32.07325928 201.41519928 -32.8691748 201.41242981 -33.68920898 201.40957642 C-45.46139001 201.36152609 -56.99615991 200.90388522 -68.65234375 199.16796875 C-70.38132386 198.9348103 -72.11050084 198.70310833 -73.83984375 198.47265625 C-81.64541094 197.40098147 -89.31325366 196.2689915 -96.86254883 193.95092773 C-99.87413643 193.10572239 -102.88405719 192.49780005 -105.953125 191.89453125 C-114.14782188 190.15684514 -122.02901504 187.70707786 -129.96484375 185.04296875 C-130.68679932 184.80186371 -131.40875488 184.56075867 -132.15258789 184.31234741 C-167.74724412 172.34482174 -167.74724412 172.34482174 -175.65234375 157.16796875 C-176.51821072 153.99312318 -176.44428962 151.36097344 -175.65234375 148.16796875 C-171.99252068 142.08633683 -167.12288337 137.5681854 -161.65234375 133.16796875 C-160.07610819 131.43854406 -158.58029218 129.65651181 -157.08203125 127.859375 C-154.08973185 124.31930495 -150.77062468 121.24832176 -147.21484375 118.29296875 C-144.14825511 115.70532671 -141.60400363 112.90029393 -139.04296875 109.8203125 C-135.93926857 106.13248897 -132.43634181 102.97265364 -128.77734375 99.85546875 C-125.26202047 96.81679947 -122.24395117 93.54440409 -119.234375 90.01171875 C-116.16723793 86.43717876 -112.82859322 83.29783702 -109.21484375 80.29296875 C-106.14825511 77.70532671 -103.60400363 74.90029393 -101.04296875 71.8203125 C-97.90219817 68.08844184 -94.3481438 64.89335381 -90.65234375 61.73046875 C-88.19478943 59.60950254 -85.99341834 57.51458717 -83.96484375 54.98046875 C-81.65234375 52.16796875 -81.65234375 52.16796875 -79.21484375 50.23046875 C-76.45539779 48.00945127 -74.37709151 45.59685503 -72.11328125 42.890625 C-68.95478072 39.16629684 -65.4192018 35.95608284 -61.71484375 32.79296875 C-58.48812049 30.00294487 -55.72591866 27.0643728 -53.0078125 23.78515625 C-49.33588909 19.40424475 -45.04669555 15.71475335 -40.71484375 12.01171875 C-38.5300762 10.129795 -38.5300762 10.129795 -36.36328125 7.58984375 C-33.08088203 4.65744099 -30.53642708 3.93738423 -26.27734375 2.91796875 C-25.01148438 2.6034375 -23.745625 2.28890625 -22.44140625 1.96484375 C-14.85769525 0.36991896 -7.73887906 0.00805037 0 0 Z " fill="#FEFEFE" transform="translate(352.65234375,548.83203125)"/>
<path d="M0 0 C0.99 0.33 1.98 0.66 3 1 C2.57680984 1.35231973 2.15361969 1.70463945 1.71760559 2.06763554 C-5.32130689 8.06862358 -11.77513937 14.6421204 -18.30078125 21.18725586 C-19.63177862 22.5185357 -20.96299701 23.8495946 -22.29441833 25.18045044 C-25.88904716 28.77479361 -29.48059513 32.37220079 -33.07157898 35.97018504 C-36.83205317 39.73693142 -40.59537956 43.50082601 -44.35839844 47.26502991 C-51.47520897 54.38494239 -58.58946761 61.50739905 -65.70280266 68.63078362 C-73.80484148 76.74401893 -81.90973674 84.85439818 -90.01486778 92.96454418 C-106.67974861 109.63986364 -123.34105665 126.31874904 -140 143 C-140 139.13748641 -138.8902236 138.41713684 -136.3125 135.625 C-135.20841797 134.42617188 -135.20841797 134.42617188 -134.08203125 133.203125 C-130.53340283 129.44810355 -126.92303016 125.92196053 -123 122.5625 C-119.57726709 119.602125 -116.83221711 116.52113478 -114 113 C-111.00977436 109.84365071 -107.83760039 106.97768375 -104.5625 104.125 C-101.17278197 101.14002442 -98.19314891 98.0592622 -95.3203125 94.58203125 C-92.21731369 90.86394096 -88.6685084 87.70202873 -85 84.5625 C-81.57726709 81.602125 -78.83221711 78.52113478 -76 75 C-73.00977436 71.84365071 -69.83760039 68.97768375 -66.5625 66.125 C-63.17278197 63.14002442 -60.19314891 60.0592622 -57.3203125 56.58203125 C-54.2357154 52.88599034 -50.71260055 49.74178415 -47.0625 46.625 C-43.83577674 43.83497612 -41.07357491 40.89640405 -38.35546875 37.6171875 C-35.25186404 33.9143277 -31.72627857 30.75346368 -28.0625 27.625 C-24.83577674 24.83497612 -22.07357491 21.89640405 -19.35546875 18.6171875 C-15.64356919 14.18858111 -11.29236415 10.48411064 -6.9375 6.71484375 C-4.5154765 4.57115763 -2.25104107 2.3213861 0 0 Z " fill="#CCCCCC" transform="translate(319,554)"/>
<path d="M0 0 C0.66 0.33 1.32 0.66 2 1 C1.15179687 1.83772949 0.30359375 2.67545898 -0.5703125 3.53857422 C-3.70619597 6.63834636 -6.83552838 9.74466026 -9.96289062 12.85302734 C-11.31917443 14.19923329 -12.67724503 15.54364149 -14.03710938 16.88623047 C-15.98776601 18.81271716 -17.93197394 20.74550883 -19.875 22.6796875 C-20.48746582 23.28183075 -21.09993164 23.883974 -21.73095703 24.50436401 C-23.19242185 25.96543501 -24.60179351 27.47828173 -26 29 C-26 29.66 -26 30.32 -26 31 C-26.66 31 -27.32 31 -28 31 C-26.7797316 23.38621264 -18.83561878 17.70514819 -13.23046875 12.97265625 C-8.60319433 8.88023316 -4.33039998 4.40204263 0 0 Z " fill="#2F2F2F" transform="translate(621,488)"/>
</svg>
