<svg preserveAspectRatio="none" width="100%" height="100%" overflow="visible" style="display: block;" viewBox="0 0 182 34" fill="none" xmlns="http://www.w3.org/2000/svg">
<g id="Autospend">
<path d="M3.86457 21.7323V17.2359H18.8398V21.7323H3.86457ZM7.02311 1.12356H15.0124L22.0726 27.2779H16.5731L12.5598 11.6153L10.9992 5.05795L9.43847 11.6153L5.35094 27.2779H0L7.02311 1.12356Z" fill="var(--fill-0, white)"/>
<path d="M27.4142 6.5193V19.4091C27.4142 20.6082 27.7238 21.5824 28.3432 22.3318C28.9873 23.0563 29.8295 23.4185 30.87 23.4185C32.0591 23.4185 33.1367 23.0063 34.1029 22.182C35.069 21.3326 35.9732 19.9587 36.8155 18.0602L37.5587 22.7815C36.6668 24.5051 35.5397 25.7666 34.1772 26.566C32.8147 27.3404 31.3778 27.7276 29.8667 27.7276C28.306 27.7276 26.9559 27.3903 25.8163 26.7159C24.7015 26.0414 23.8345 25.1171 23.2152 23.9431C22.5958 22.744 22.2862 21.3326 22.2862 19.7089V6.5193H27.4142ZM41.4604 6.5193V27.2779L36.3696 26.0039V23.2686V6.5193H41.4604Z" fill="var(--fill-0, white)"/>
<path d="M52.3016 27.2779C50.9639 27.2779 49.7872 26.9782 48.7715 26.3786C47.7806 25.7791 47.0126 24.9423 46.4676 23.8681C45.9474 22.794 45.6873 21.5699 45.6873 20.196V3.16928C45.6873 2.99545 45.7873 2.83714 45.9444 2.76256L50.1718 0.754696C50.4706 0.612797 50.8152 0.830667 50.8152 1.16141V20.196C50.8152 20.8205 50.902 21.3576 51.0754 21.8072C51.2488 22.2319 51.5956 22.5567 52.1158 22.7815C52.6361 23.0063 53.3545 23.1187 54.2711 23.1187H59.8078V27.2779H52.3016ZM41.3768 10.6785V6.5193H56.2777V10.6785H41.3768Z" fill="var(--fill-0, white)"/>
<path d="M69.5714 27.7276C67.3914 27.7276 65.5087 27.2904 63.9232 26.4161C62.3625 25.5418 61.161 24.3053 60.3187 22.7065C59.5012 21.0828 59.0925 19.1468 59.0925 16.8986C59.0925 14.6504 59.5012 12.7269 60.3187 11.1282C61.161 9.50445 62.3625 8.25543 63.9232 7.38112C65.5087 6.50681 67.3914 6.06966 69.5714 6.06966C72.8414 6.06966 75.393 7.0314 77.2262 8.95488C79.0842 10.8784 80.0132 13.5263 80.0132 16.8986C80.0132 19.1468 79.592 21.0828 78.7498 22.7065C77.9323 24.3053 76.7432 25.5418 75.1825 26.4161C73.6218 27.2904 71.7514 27.7276 69.5714 27.7276ZM69.5714 23.5309C71.2312 23.5309 72.5318 22.9439 73.4731 21.7698C74.4393 20.5707 74.9224 18.947 74.9224 16.8986C74.9224 14.8253 74.4393 13.2015 73.4731 12.0275C72.5318 10.8534 71.2312 10.2663 69.5714 10.2663C67.8869 10.2663 66.5615 10.8534 65.5954 12.0275C64.654 13.2015 64.1833 14.8253 64.1833 16.8986C64.1833 18.947 64.654 20.5707 65.5954 21.7698C66.5615 22.9439 67.8869 23.5309 69.5714 23.5309Z" fill="var(--fill-0, white)"/>
<path d="M89.7118 27.7276C87.829 27.7276 86.1692 27.4153 84.7324 26.7908C83.2956 26.1413 82.1808 25.2296 81.3881 24.0555C80.6201 22.8814 80.2237 21.4825 80.199 19.8588H84.9554C84.9306 21.1328 85.3393 22.132 86.1816 22.8564C87.0487 23.5809 88.213 23.9431 89.6746 23.9431C90.8142 23.9431 91.7307 23.7432 92.4244 23.3435C93.118 22.9439 93.4649 22.3818 93.4649 21.6574C93.4649 21.0578 93.2295 20.5832 92.7588 20.2335C92.2881 19.8838 91.6688 19.609 90.9009 19.4091C90.1577 19.1843 89.3278 18.9845 88.4112 18.8096C87.4946 18.6098 86.578 18.3849 85.6614 18.1351C84.7448 17.8604 83.9025 17.4981 83.1346 17.0485C82.3666 16.5989 81.7473 16.0118 81.2766 15.2874C80.8059 14.538 80.5706 13.5887 80.5706 12.4396C80.5706 11.1656 80.9298 10.054 81.6482 9.10477C82.3666 8.15551 83.3699 7.4186 84.6581 6.89401C85.9711 6.34444 87.4822 6.06966 89.1915 6.06966C91.8175 6.06966 93.9355 6.68167 95.5458 7.90571C97.156 9.12974 98.0354 10.8284 98.1841 13.0017H93.4649C93.3905 11.9775 92.9694 11.2031 92.2014 10.6785C91.4582 10.129 90.4673 9.85417 89.2287 9.85417C88.1387 9.85417 87.284 10.0665 86.6647 10.4912C86.0454 10.8909 85.7357 11.4529 85.7357 12.1773C85.7357 12.7519 85.9711 13.2015 86.4417 13.5263C86.9124 13.826 87.5194 14.0758 88.2625 14.2757C89.0305 14.4755 89.8728 14.6504 90.7894 14.8003C91.7307 14.9502 92.6473 15.1625 93.5392 15.4373C94.4558 15.6871 95.2857 16.0368 96.0288 16.4864C96.7968 16.9111 97.4161 17.4981 97.8868 18.2476C98.3575 18.997 98.5928 19.9587 98.5928 21.1328C98.5928 23.2061 97.7877 24.8299 96.1775 26.0039C94.5672 27.153 92.412 27.7276 89.7118 27.7276Z" fill="var(--fill-0, white)"/>
<path d="M110.512 6.06966C112.32 6.06966 113.918 6.54428 115.305 7.49354C116.693 8.44279 117.77 9.74176 118.538 11.3905C119.331 13.0142 119.727 14.8502 119.727 16.8986C119.727 18.922 119.331 20.7581 118.538 22.4068C117.77 24.0305 116.693 25.3295 115.305 26.3037C113.918 27.253 112.32 27.7276 110.512 27.7276C109.248 27.7276 108.084 27.4903 107.019 27.0156C105.978 26.516 105.099 25.8541 104.38 25.0297V31.4318C104.38 31.6113 104.274 31.7737 104.109 31.845L99.8816 33.6753C99.5843 33.804 99.2524 33.5861 99.2524 33.2621V6.5193H104.195L104.306 8.805C105.024 7.95567 105.916 7.29369 106.982 6.81907C108.047 6.31946 109.223 6.06966 110.512 6.06966ZM109.248 23.4559C110.314 23.4559 111.242 23.1687 112.035 22.5941C112.853 22.0196 113.484 21.2452 113.93 20.271C114.401 19.2717 114.636 18.1476 114.636 16.8986C114.636 15.6246 114.401 14.5005 113.93 13.5263C113.484 12.5271 112.853 11.7527 112.035 11.2031C111.242 10.6286 110.314 10.3413 109.248 10.3413C108.133 10.3413 107.143 10.6785 106.276 11.353C105.408 12.0025 104.777 12.8893 104.38 14.0134V19.7464C104.777 20.8705 105.408 21.7698 106.276 22.4442C107.143 23.1187 108.133 23.4559 109.248 23.4559Z" fill="var(--fill-0, white)"/>
<path d="M130.782 27.7276C128.577 27.7276 126.682 27.2904 125.097 26.4161C123.536 25.5418 122.322 24.2928 121.455 22.6691C120.613 21.0453 120.192 19.1219 120.192 16.8986C120.192 14.6254 120.613 12.6894 121.455 11.0907C122.322 9.46698 123.561 8.23045 125.171 7.38112C126.781 6.50681 128.726 6.06966 131.005 6.06966C134.548 6.06966 137.124 7.06887 138.734 9.06729C140.369 11.0657 141.063 13.8136 140.815 17.3108H124.279V13.7136H135.613C135.514 12.6395 135.031 11.7777 134.164 11.1282C133.321 10.4537 132.256 10.1165 130.968 10.1165C129.06 10.1165 127.636 10.716 126.695 11.915C125.778 13.1141 125.32 14.8502 125.32 17.1234C125.32 18.3225 125.53 19.4091 125.951 20.3834C126.373 21.3576 126.979 22.132 127.772 22.7065C128.59 23.2811 129.593 23.5684 130.782 23.5684C132.07 23.5684 133.16 23.2436 134.052 22.5941C134.969 21.9446 135.526 21.1078 135.724 20.0836H140.815C140.543 22.4318 139.515 24.2928 137.731 25.6667C135.947 27.0406 133.631 27.7276 130.782 27.7276Z" fill="var(--fill-0, white)"/>
<path d="M155.474 27.2779V14.3881C155.474 13.189 155.152 12.2273 154.508 11.5029C153.889 10.7535 153.059 10.3788 152.019 10.3788C150.83 10.3788 149.752 10.8034 148.786 11.6528C147.82 12.4771 146.915 13.8385 146.073 15.737L145.33 11.0158C146.222 9.29212 147.349 8.0431 148.711 7.26871C150.074 6.46934 151.511 6.06966 153.022 6.06966C154.583 6.06966 155.92 6.40689 157.035 7.08136C158.175 7.75583 159.054 8.69259 159.673 9.89164C160.293 11.0657 160.602 12.4646 160.602 14.0883V27.2779H155.474ZM141.428 27.2779V6.5193H146.333L146.519 10.5286V27.2779H141.428Z" fill="var(--fill-0, white)"/>
<path d="M170.282 6.06966C171.546 6.06966 172.71 6.31946 173.775 6.81907C174.865 7.29369 175.77 7.94318 176.488 8.76753V3.13004C176.488 2.97708 176.566 2.83458 176.694 2.75166L180.847 0.0726298C181.147 -0.120644 181.542 0.094452 181.542 0.451001V27.2779L176.562 26.3037V24.9173C175.844 25.7666 174.94 26.4536 173.85 26.9782C172.785 27.4778 171.595 27.7276 170.282 27.7276C168.499 27.7276 166.913 27.253 165.526 26.3037C164.139 25.3295 163.049 24.0305 162.256 22.4068C161.463 20.7581 161.067 18.922 161.067 16.8986C161.067 14.8502 161.463 13.0142 162.256 11.3905C163.049 9.74176 164.139 8.44279 165.526 7.49354C166.913 6.54428 168.499 6.06966 170.282 6.06966ZM171.546 23.4559C172.685 23.4559 173.689 23.1187 174.556 22.4442C175.448 21.7448 176.092 20.8205 176.488 19.6714V14.0883C176.092 12.9143 175.448 12.0025 174.556 11.353C173.689 10.6785 172.685 10.3413 171.546 10.3413C170.505 10.3413 169.576 10.6286 168.759 11.2031C167.941 11.7527 167.31 12.5271 166.864 13.5263C166.418 14.5005 166.195 15.6246 166.195 16.8986C166.195 18.1476 166.418 19.2717 166.864 20.271C167.31 21.2452 167.941 22.0196 168.759 22.5941C169.576 23.1687 170.505 23.4559 171.546 23.4559Z" fill="var(--fill-0, white)"/>
</g>
</svg>
