<svg preserveAspectRatio="none" width="100%" height="100%" overflow="visible" style="display: block;" viewBox="0 0 256 272" fill="none" xmlns="http://www.w3.org/2000/svg">
<g id="Image Container">
<ellipse id="Ellipse 3" cx="127.915" cy="135.776" rx="130" ry="57" transform="rotate(-49.367 127.915 135.776)" fill="var(--fill-0, #EDAEF5)"/>
<g id="Ellipse 1" filter="url(#filter0_f_1132_14387)">
<ellipse cx="116.84" cy="126.234" rx="113" ry="42.5" transform="rotate(-49.367 116.84 126.234)" fill="var(--fill-0, #2A58DC)"/>
</g>
<g id="Image">
<path id="Vector" d="M115.439 136.753C123.897 126.583 122.525 123.096 115.188 121.643C110.051 120.481 110.764 118.156 114.148 114.088C117.532 110.019 121.741 107.405 125.81 107.405C129.472 107.405 130.057 109.148 127.449 113.507C126.927 114.379 127.054 114.96 127.665 114.96H130.92C131.734 114.96 133.069 114.088 134.035 112.926L134.277 112.635C138.78 106.242 139.227 101.302 135.031 100.722L140.831 93.7476C141.798 92.585 141.912 91.7133 141.137 91.4224H138.085C137.271 91.4224 135.936 92.2942 134.524 93.7476L128.965 100.431C121.895 101.593 113.196 107.405 107.154 114.669C99.1783 124.259 100.106 128.036 107.442 129.489C111.931 130.942 112.312 132.685 108.445 137.335C104.578 141.984 99.0706 145.181 95.2053 145.181C89.9152 145.181 90.743 141.984 93.7578 137.625C94.521 136.463 94.3944 135.881 93.784 135.881H90.325C89.5115 135.881 88.1761 136.753 87.2092 137.916L86.9673 138.207C81.7392 145.471 80.6444 150.701 86.1496 152.154L80.3492 159.128C79.3829 160.29 79.2682 161.162 80.0435 161.453H83.0953C83.9093 161.453 85.2447 160.581 86.6565 159.128L92.4568 152.154C99.7692 150.701 108.913 144.599 115.439 136.753Z" fill="var(--fill-0, white)"/>
<path id="Vector_2" d="M66.2574 167.265C57.1547 159.129 70.0425 133.848 94.5527 111.473C107.755 99.2684 122.203 89.97 134.169 85.6113C135.466 85.0304 136.598 84.1586 137.807 82.7052L141.19 78.6373C142.157 77.4748 142.476 76.603 141.903 76.3129C141.699 76.3129 141.293 76.3129 140.848 76.603C114.269 85.3205 79.2794 114.67 62.4236 142.275C52.5519 158.547 50.9081 171.042 57.9512 176.273C58.282 176.854 59.5791 176.273 60.7492 175.11C61.1941 174.82 61.4359 174.529 61.9191 173.948L65.303 169.88C66.0281 169.008 66.384 167.846 66.2574 167.265ZM163.228 76.603C162.897 76.0221 161.6 76.603 160.43 77.7656C159.984 78.0564 159.743 78.3465 159.259 78.9282L155.876 82.9961C154.909 84.1586 154.553 85.3205 154.68 85.9021C163.783 94.0379 150.895 119.319 126.384 141.694C113.182 153.898 98.7345 163.197 86.7679 167.555C85.4707 168.136 84.3389 169.008 83.1301 170.461L79.7468 174.529C78.7799 175.692 78.4616 176.564 79.0343 176.854C79.2379 176.854 79.6447 176.854 80.0896 176.564C106.668 167.846 141.658 138.497 158.514 110.892C168.627 94.3287 170.067 81.8335 163.228 76.603Z" fill="var(--fill-0, white)"/>
</g>
</g>
<defs>
<filter id="filter0_f_1132_14387" x="8.58478" y="8.20908" width="216.51" height="236.05" filterUnits="userSpaceOnUse" color-interpolation-filters="sRGB">
<feFlood flood-opacity="0" result="BackgroundImageFix"/>
<feBlend mode="normal" in="SourceGraphic" in2="BackgroundImageFix" result="shape"/>
<feGaussianBlur stdDeviation="13.945" result="effect1_foregroundBlur_1132_14387"/>
</filter>
</defs>
</svg>
