<svg preserveAspectRatio="none" width="100%" height="100%" overflow="visible" style="display: block;" viewBox="0 0 245 260" fill="none" xmlns="http://www.w3.org/2000/svg">
<g id="Image Container">
<ellipse id="Ellipse 3" cx="122.11" cy="129.594" rx="124" ry="54.5" transform="rotate(-49.367 122.11 129.594)" fill="var(--fill-0, #1F4CCC)"/>
<g id="Ellipse 1" filter="url(#filter0_f_1132_14368)">
<ellipse cx="111.964" cy="120.683" rx="108" ry="41" transform="rotate(-49.367 111.964 120.683)" fill="var(--fill-0, #53C6FD)"/>
</g>
<g id="Image">
<path id="Vector" d="M113.276 129.351C120.755 119.81 119.295 116.362 112.313 114.646C107.418 113.304 107.978 111.073 110.97 107.256C113.962 103.439 117.802 101.07 121.635 101.238C125.084 101.389 125.719 103.109 123.472 107.24C123.023 108.066 123.17 108.636 123.745 108.661L126.812 108.796C127.578 108.829 128.794 108.037 129.649 106.947L129.863 106.674C133.797 100.643 133.98 95.8573 129.999 95.1191L135.128 88.5765C135.983 87.4858 136.049 86.6428 135.305 86.328L132.43 86.2019C131.663 86.1683 130.447 86.961 129.186 88.316L124.272 94.5859C117.667 95.4245 109.752 100.717 104.409 107.532C97.3573 116.529 98.4127 120.24 105.394 121.956C109.692 123.554 110.135 125.266 106.715 129.628C103.296 133.99 98.262 136.871 94.6208 136.711C89.6373 136.493 90.2634 133.418 92.8938 129.303C93.5569 128.205 93.4097 127.634 92.8347 127.609L89.5762 127.466C88.8098 127.433 87.5938 128.225 86.7388 129.316L86.5249 129.589C81.9492 136.437 81.1694 141.478 86.4254 143.119L81.2967 149.662C80.4423 150.752 80.3762 151.595 81.1204 151.91L83.9953 152.036C84.7621 152.069 85.9782 151.277 87.2383 149.922L92.367 143.38C99.1856 142.268 107.506 136.711 113.276 129.351Z" fill="var(--fill-0, white)"/>
<path id="Vector_2" d="M68.4136 156.992C59.4472 148.704 70.3722 124.651 92.3855 103.903C104.236 92.5795 117.399 84.1334 128.462 80.3886C129.656 79.8772 130.68 79.0762 131.749 77.7127L134.741 73.8964C135.595 72.8057 135.853 71.9711 135.3 71.6653C135.108 71.6569 134.725 71.6401 134.32 71.9039C109.701 79.2841 78.1513 106.381 63.6002 132.531C55.0833 147.948 54.1358 160.032 61.0221 165.41C61.3617 165.988 62.5557 165.477 63.602 164.394C64.0071 164.131 64.221 163.858 64.6482 163.313L67.6403 159.496C68.2814 158.678 68.5609 157.563 68.4136 156.992ZM155.403 72.828C155.063 72.2494 153.869 72.7608 152.823 73.843C152.417 74.1074 152.204 74.3796 151.776 74.9253L148.785 78.7416C147.93 79.8323 147.65 80.9475 147.797 81.5183C156.764 89.8063 145.839 113.859 123.825 134.607C111.975 145.931 98.8124 154.377 87.7491 158.122C86.5551 158.633 85.5308 159.434 84.462 160.798L81.4704 164.614C80.6155 165.705 80.3576 166.539 80.911 166.845C81.1028 166.853 81.486 166.87 81.8911 166.606C106.51 159.226 138.06 132.129 152.611 105.979C161.342 90.2891 162.097 78.197 155.403 72.828Z" fill="var(--fill-0, white)"/>
</g>
</g>
<defs>
<filter id="filter0_f_1132_14368" x="9.59188" y="9.01289" width="204.744" height="223.34" filterUnits="userSpaceOnUse" color-interpolation-filters="sRGB">
<feFlood flood-opacity="0" result="BackgroundImageFix"/>
<feBlend mode="normal" in="SourceGraphic" in2="BackgroundImageFix" result="shape"/>
<feGaussianBlur stdDeviation="12.7233" result="effect1_foregroundBlur_1132_14368"/>
</filter>
</defs>
</svg>
