<svg preserveAspectRatio="none" width="100%" height="100%" overflow="visible" style="display: block;" viewBox="0 0 753 754" fill="none" xmlns="http://www.w3.org/2000/svg">
<g id="Group">
<path id="Vector" opacity="0.6" d="M180.916 698.127C177.682 696.155 183.573 679.386 197.951 649.48C212.332 619.572 234.714 577.594 262.835 527.745C290.957 477.895 323.831 421.954 358.159 365.55C392.503 309.12 427.082 254.232 458.411 206.341C489.768 158.465 516.778 119.304 536.727 92.8087C556.691 66.2854 568.888 53.3765 572.123 55.3487M133.685 664.1C120.252 652.726 118.265 628.27 127.91 593.196C137.581 558.138 158.568 513.659 188.749 464.284C218.93 414.909 257.278 362.361 299.902 311.942C342.541 261.495 387.944 214.944 431.559 176.945C475.2 138.96 515.509 110.852 548.461 95.4916C581.414 80.1292 605.843 78.0318 619.293 89.3786M87.6081 617.657C68.2423 594.393 62.5898 560.433 71.1649 519.166C79.7434 477.899 102.304 430.772 136.542 382.525C170.778 334.278 215.501 286.609 266.216 244.313C316.932 202.017 371.853 166.603 425.429 141.605C479.033 116.621 529.408 102.911 571.547 101.883C613.672 100.882 646.046 112.567 665.386 135.817M43.0451 550.74C24.1689 514.542 21.0293 470.92 33.956 424.286C46.8828 377.651 75.4194 329.654 116.66 285.087C157.928 240.536 210.451 201.004 268.979 170.446C327.507 139.888 389.992 119.452 450.107 111.085C510.25 102.732 565.915 106.825 611.517 122.899C657.116 138.976 691.064 166.538 709.938 202.737M7.76558 450.673C-1.78538 402.998 5.87275 352.73 29.9655 304.94C54.0582 257.149 93.7312 213.507 145.015 178.431C196.3 143.355 257.369 118.046 322.093 105.054C386.817 92.0632 452.915 91.8791 513.749 104.48C574.584 117.082 627.996 142.039 668.626 176.837C709.258 211.635 735.684 255.095 745.234 302.773M6.517 309.32C16.0246 257.052 42.4633 208.839 83.1869 169.515C123.884 130.177 177.429 101.111 238.451 85.2152C299.455 69.3471 365.763 67.2029 430.706 79.057C495.665 90.8851 556.965 116.282 608.438 152.667C659.909 189.051 699.804 235.133 724.023 286.312C748.243 337.491 756.012 391.927 746.506 444.195M72.2467 155.569C120.158 89.5958 198.144 49.5972 289.087 44.412C380.029 39.2269 476.447 69.2742 557.137 127.916C637.825 186.558 696.202 269.043 719.389 357.157C742.559 445.299 728.69 531.878 680.806 597.865M188.569 50.7683C255.478 12.1511 339.453 9.4334 422.015 43.2652C504.577 77.097 578.958 144.63 628.786 231.1C678.63 317.544 699.849 415.801 687.758 504.248C675.666 592.696 631.296 664.087 564.389 702.704M302.592 7.76005C369.011 -5.55894 440.488 20.5282 501.319 80.3221C562.15 140.116 607.318 228.645 626.928 326.502C646.539 424.357 638.93 523.501 605.831 602.109C572.733 680.714 516.818 732.377 450.401 745.696M393.192 0.802556C446.74 3.19007 496.348 45.0897 531.092 117.262C565.835 189.434 582.843 286.018 578.448 385.715C574.011 485.424 548.51 580.087 507.501 648.908C466.493 717.729 413.388 755.071 359.838 752.682M463.742 10.7071C498.591 19.0113 522.804 65.573 531.082 140.086C539.36 214.6 531.016 311.009 507.863 408.101C484.723 505.167 448.674 594.989 407.678 657.762C366.682 720.534 324.078 751.133 289.245 742.801M521.526 29.5257C535.922 35.5518 534.419 77.8981 517.396 147.263C500.373 216.628 469.218 307.337 430.757 399.411C392.296 491.485 349.706 577.425 312.306 638.286C274.949 699.133 245.873 729.962 231.477 723.934M247.733 730.33C211.026 716.942 175.38 697.135 144.617 673.032M384.872 752.962C326.948 754.27 259.124 735.427 196.684 700.732C134.243 666.036 82.4471 618.376 52.8965 568.497M474.497 740.07C400.836 759.966 297.96 740.1 203.882 687.824C109.805 635.549 38.5683 558.669 16.509 485.586M548.987 711.126C510.157 731.18 457.463 737.719 397.896 729.873C338.33 722.028 274.63 700.193 215.31 667.232C155.99 634.27 103.779 591.735 65.6513 545.26C27.5065 498.811 5.19723 450.597 1.68421 407.014M612.116 670.057C574.169 700.57 515.839 714.155 446.587 708.607C377.334 703.057 301.235 678.7 230.671 639.49C160.107 600.281 99.2152 548.518 57.8994 492.63C16.5837 436.741 -2.72659 380.012 3.09776 331.652M664.372 618.896C630.23 659.553 569.039 680.638 492.548 678.109C416.043 675.609 329.558 649.673 249.684 605.29C169.811 560.907 102.091 501.16 59.5266 437.499C16.964 373.837 2.50213 310.717 18.928 260.251M705.293 559.43C686.903 592.567 653.657 616.64 608.893 629.311C564.1 641.968 509.396 642.741 450.223 631.522C391.051 620.302 329.527 597.528 271.796 565.45C214.063 533.369 162.22 493.152 121.422 448.821C80.6255 404.492 52.3356 357.602 39.4209 312.881C26.4802 268.145 29.3664 227.168 47.7424 194.057M705.293 559.43C656.862 646.682 575.779 711.113 479.878 738.551C432.394 752.136 382.7 756.228 333.635 750.593C284.57 744.959 237.095 729.708 193.921 705.712C106.729 657.252 42.336 576.132 14.8958 480.182C1.31961 432.667 -2.76955 382.942 2.86186 333.845C8.49327 284.749 23.7349 237.243 47.7164 194.042C96.1455 106.796 177.215 42.3624 273.103 14.9052C320.588 1.32041 370.282 -2.77148 419.347 2.86319C468.412 8.49786 515.887 23.7487 559.061 47.7448C646.253 96.2046 710.646 177.326 738.086 273.276C765.505 369.239 753.709 472.17 705.293 559.43ZM734.108 493.237C721.556 531.837 691.509 561.245 647.418 578.094C603.341 594.916 547.041 598.501 484.97 588.383C422.883 578.292 357.543 554.911 296.474 520.978C235.379 487.03 181.03 443.905 139.65 396.504C98.2705 349.103 71.507 299.398 62.5047 253.083C53.4747 206.753 62.5655 165.699 88.664 134.59M749.868 421.832C744.653 465.037 719.64 499.392 678.123 520.417C636.59 541.472 580.459 548.179 517.118 539.715C453.776 531.251 386.159 507.979 323.126 472.953C260.093 437.93 204.606 392.798 163.941 343.47C123.278 294.144 99.295 242.92 95.2003 196.513C91.1055 150.106 107.026 110.701 140.906 83.4568M751.351 346.474C755.116 393.156 737.11 432.072 700.064 457.344C663.021 482.618 608.952 492.901 545.983 486.618C483.014 480.335 414.607 457.853 351.064 422.546C287.52 387.238 232.258 340.999 193.669 290.852C155.052 240.689 135.195 189.328 137.051 144.502C138.907 99.6759 162.429 63.8249 203.994 42.3321M736.528 267.902C751.247 316.726 742.759 359.802 712.533 389.533C682.307 419.264 632.299 433.707 571.356 430.31C510.44 426.927 442.532 405.888 379.689 370.968C316.845 336.048 263.125 289.504 228.026 239.537C192.955 189.583 178.773 139.473 188.017 98.0824C197.258 56.6919 229.329 26.6812 278.513 13.4022M700.087 184.961C729.108 234.018 734.217 281.198 714.257 316.212C694.297 351.225 650.91 371.248 593.582 371.866C536.238 372.511 469.584 353.718 408.192 319.605C346.8 285.492 295.623 238.812 265.857 189.764C236.091 140.715 230.124 93.304 249.276 57.8422C268.427 22.3805 311.153 1.77737 368.109 0.494991M608.377 80.4663C649.465 112.666 679.408 150.613 692.726 187.315C706.015 224.004 701.764 256.969 680.711 280.067C659.655 303.165 623.268 314.821 578.253 312.912C533.237 311.004 482.676 295.624 435.946 269.658C389.189 243.677 349.44 208.876 324.024 171.649C298.608 134.422 289.262 97.3544 297.726 67.2585C306.191 37.1643 331.882 16.1146 370.058 8.02244C408.206 -0.0836409 456.253 5.30652 505.287 23.1833M659.03 219.555C646.421 242.277 618.583 255.337 581.685 255.86C544.761 256.371 501.797 244.296 462.223 222.306C422.623 200.302 389.669 170.191 370.608 138.575C351.522 106.943 347.896 76.435 360.519 53.6875C373.128 30.9679 400.966 17.9079 437.864 17.3831C474.788 16.874 517.752 28.9471 557.326 50.9369C596.898 72.9267 629.88 103.052 648.941 134.668C668.001 166.286 671.637 196.836 659.03 219.555ZM620.336 176.89C611.746 192.367 592.809 201.251 567.695 201.597C542.581 201.943 513.31 193.741 486.38 178.778C459.45 163.816 437.003 143.311 424.036 121.772C411.056 100.258 408.579 79.4758 417.168 63.9969C425.759 48.5181 444.698 39.6353 469.81 39.2895C494.922 38.9437 524.196 47.1454 551.127 62.1081C578.057 77.0709 600.502 97.5751 613.468 119.115C626.451 140.628 628.927 161.411 620.336 176.89ZM575.647 139.131C566.592 155.444 536.229 155.866 507.821 140.079C479.411 124.293 463.718 98.2805 472.771 81.9676C481.825 65.6547 512.188 65.2324 540.596 81.0171C569.006 96.8036 584.699 122.818 575.647 139.131Z" stroke="var(--stroke-0, #7E7E7E)" stroke-width="0.818654"/>
</g>
</svg>
